<?xml version="1.0" encoding="UTF-8"?>
<svg width="494px" height="502px" viewBox="0 0 494 502" version="1.1" xmlns="http://www.w3.org/2000/svg" xmlns:xlink="http://www.w3.org/1999/xlink">
    <!-- Generator: Sketch 49 (51002) - http://www.bohemiancoding.com/sketch -->
    <title>ee-logo</title>
    <desc>Created with Sketch.</desc>
    <defs></defs>
    <g id="Page-1" stroke="none" stroke-width="1" fill="none" fill-rule="evenodd">
        <g id="ee-logo" transform="translate(13.000000, 13.000000)" fill-rule="nonzero">
            <path d="M279.58,351.79 L234.42,296.19 L189.26,351.79 L159.68,315.37 L234,223.82 L308.74,315.87 L279.58,351.79 Z M72.74,423.11 L143.63,335.79 L189.25,392 L234.41,336.4 L279.58,392 L324.79,336.33 L395.28,423.14 L448.35,488.51 L467.68,472.83 L412.5,404.83 L234,185 L55.52,404.83 L0.32,472.83 L19.65,488.51 L72.74,423.11 Z" id="Shape" fill="#FFFFFF"></path>
            <path d="M78.0169768,403.057275 C72.621801,402.297204 65.1228088,396.221446 55.52,384.83 C19.8053957,342.696174 0.239550378,289.233919 0.32,234 C0.32,104.94 104.95,0.33 234.01,0.33 C363.07,0.33 467.68,104.94 467.68,234 C467.760802,289.230469 448.202792,342.690684 412.5,384.83 L395.043396,403.057275" id="Shape" stroke="#FFFFFF" stroke-width="26"></path>
        </g>
    </g>
</svg>