<?xml version="1.0" encoding="UTF-8"?>
<svg width="479px" height="470px" viewBox="0 0 479 470" version="1.1" xmlns="http://www.w3.org/2000/svg" xmlns:xlink="http://www.w3.org/1999/xlink">
    <!-- Generator: Sketch 44.1 (41455) - http://www.bohemiancoding.com/sketch -->
    <title>hejsfj logo</title>
    <desc>Created with Sketch.</desc>
    <defs></defs>
    <g id="Page-1" stroke="none" stroke-width="1" fill="none" fill-rule="evenodd">
        <g id="hejsfj-logo" fill-rule="nonzero" fill="#FFFFFF">
            <path d="M31.22,276.78 C41.72,255.58 49.7466667,241.806667 55.3,235.46 C71.5466667,217.233333 93.9433333,208.116667 122.49,208.11 C142.303333,208.11 164.303333,212.47 188.49,221.19 C189.676667,232.69 194.036667,242.003333 201.57,249.13 C178.976667,309.796667 146.473333,340.516667 104.06,341.29 C95.7333333,341.29 80.1766667,338.416667 57.39,332.67 C34.6033333,326.923333 15.4766667,324.446667 0.01,325.24 C10.31,314.146667 20.7133333,297.993333 31.22,276.78 Z M114.46,47.27 C137.646667,50.6433333 153.203333,54.1133333 161.13,57.68 C199.97,74.7266667 218.006667,115.95 215.24,181.35 C206.267965,184.40052 198.815495,190.789374 194.43,199.19 C193.728318,199.790166 193.299124,200.648554 193.24,201.57 C127.833333,198.43 88.59,176.823333 75.51,136.75 C72.7166667,128.43 70.6533333,112.576667 69.32,89.19 C67.9866667,65.8033333 64.5166667,46.9766667 58.91,32.71 C72.75,39.05 91.2666667,43.9033333 114.46,47.27 Z M181.32,349.02 C181.32,321.28 194.003333,291.153333 219.37,258.64 C230.07,261.02 239.98,259.633333 249.1,254.48 C290.72,286.986667 311.53,319.69 311.53,352.59 C311.509807,360.648635 310.30699,368.660678 307.96,376.37 C305.58,384.303333 298.146667,398.176667 285.66,417.99 C273.173333,437.803333 264.96,455.046667 261.02,469.72 C253.486667,456.64 241.593333,441.973333 225.34,425.72 C207.893333,409.473333 196.993333,397.583333 192.64,390.05 C185.081527,377.710767 181.157888,363.489309 181.32,349.02 L181.32,349.02 Z M211.67,201.56 C216.183603,196.900646 222.423751,194.316269 228.91,194.42 C233.515612,194.382413 238.042092,195.617851 241.99,197.99 C249.916667,202.75 253.88,209.886667 253.88,219.4 C253.670833,233.119545 242.599545,244.190833 228.88,244.4 C222.338141,244.488054 216.068363,241.78594 211.64,236.97 C206.928987,232.126854 204.360118,225.594794 204.51,218.84 C204.401575,212.33717 206.994069,206.080423 211.67,201.56 Z M227.13,123.67 C227.13,89.1833333 238.626667,63.6166667 261.62,46.97 C268.353333,41.8233333 283.02,34.8866667 305.62,26.16 C327.026667,17.8333333 343.676667,9.11333333 355.57,2.84217094e-14 C354.763014,6.10994468 354.36546,12.2670105 354.38,18.43 C354.38,28.7433333 356.163333,44.2033333 359.73,64.81 C362.496667,82.65 363.496667,95.93 362.73,104.65 C357.95,147.456667 323.85,177.193333 260.43,193.86 C254.083333,185.533333 245.956667,180.776667 236.05,179.59 C230.103333,158.97 227.13,140.33 227.13,123.67 Z M263.99,239.61 C269.136667,231.283333 270.723333,221.966667 268.75,211.66 C301.25,189.066667 330.583333,177.77 356.75,177.77 C373.13495,177.566651 389.162617,182.562606 402.53,192.04 C409.663333,196.8 420.86,208.096667 436.12,225.93 C451.38,243.763333 465.55,256.646667 478.63,264.58 C465.55,267.36 445.73,275.883333 419.17,290.15 C395.783333,302.443333 377.166667,308.59 363.32,308.59 C328.033333,308.59 294.936667,285.796667 264.03,240.21 L264.03,239.62 L263.99,239.61 Z" id="Shape"></path>
        </g>
    </g>
</svg>