<?xml version="1.0" encoding="utf-8"?>
<!-- Generator: Adobe Illustrator 27.9.0, SVG Export Plug-In . SVG Version: 6.00 Build 0)  -->
<svg version="1.1" id="Ebene_1" xmlns="http://www.w3.org/2000/svg" xmlns:xlink="http://www.w3.org/1999/xlink" x="0px" y="0px"
	 viewBox="0 0 479 470" style="enable-background:new 0 0 479 470;" xml:space="preserve">
<style type="text/css">
	.st0{fill:#FFFFFF;}
</style>
<g id="Page-1">
	<g id="hejsfj-logo">
		<path id="Shape" class="st0" d="M31.2,276.8c10.5-21.2,18.5-35,24.1-41.3c16.2-18.2,38.6-27.3,67.2-27.4c19.8,0,41.8,4.4,66,13.1
			c1.2,11.5,5.5,20.8,13.1,27.9c-22.6,60.7-55.1,91.4-97.5,92.2c-8.3,0-23.9-2.9-46.7-8.6s-41.9-8.2-57.4-7.4
			C10.3,314.1,20.7,298,31.2,276.8z M114.5,47.3c23.2,3.4,38.7,6.8,46.7,10.4c38.8,17,56.9,58.3,54.1,123.7
			c-9,3.1-16.4,9.4-20.8,17.8c-0.7,0.6-1.1,1.5-1.2,2.4c-65.4-3.1-104.7-24.7-117.7-64.8c-2.8-8.3-4.9-24.2-6.2-47.6
			S64.5,47,58.9,32.7C72.8,39,91.3,43.9,114.5,47.3z M181.3,349c0-27.7,12.7-57.9,38-90.4c10.7,2.4,20.6,1,29.7-4.2
			c41.6,32.5,62.4,65.2,62.4,98.1c0,8.1-1.2,16.1-3.6,23.8c-2.4,7.9-9.8,21.8-22.3,41.6C273.2,437.8,265,455,261,469.7
			c-7.5-13.1-19.4-27.7-35.7-44c-17.4-16.2-28.3-28.1-32.7-35.7C185.1,377.7,181.2,363.5,181.3,349L181.3,349z M211.7,201.6
			c4.5-4.7,10.8-7.2,17.2-7.1c4.6,0,9.1,1.2,13.1,3.6c7.9,4.8,11.9,11.9,11.9,21.4c-0.2,13.7-11.3,24.8-25,25
			c-6.5,0.1-12.8-2.6-17.2-7.4c-4.7-4.8-7.3-11.4-7.1-18.1C204.4,212.3,207,206.1,211.7,201.6z M227.1,123.7
			c0-34.5,11.5-60.1,34.5-76.7c6.7-5.1,21.4-12.1,44-20.8c21.4-8.3,38.1-17,50-26.2c-0.8,6.1-1.2,12.3-1.2,18.4
			c0,10.3,1.8,25.8,5.4,46.4c2.8,17.8,3.8,31.1,3,39.8c-4.8,42.8-38.9,72.5-102.3,89.2c-6.3-8.3-14.5-13.1-24.4-14.3
			C230.1,159,227.1,140.3,227.1,123.7z M264,239.6c5.1-8.3,6.7-17.6,4.8-27.9c32.5-22.6,61.8-33.9,88-33.9
			c16.4-0.2,32.4,4.8,45.8,14.3c7.1,4.8,18.3,16.1,33.6,33.9s29.4,30.7,42.5,38.6c-13.1,2.8-32.9,11.3-59.5,25.6
			c-23.4,12.3-42,18.4-55.9,18.4c-35.3,0-68.4-22.8-99.3-68.4V239.6L264,239.6z"/>
	</g>
</g>
</svg>
